<?xml version="1.0" encoding="UTF-8"?>
<!DOCTYPE svg PUBLIC "-//W3C//DTD SVG 1.1//EN" "http://www.w3.org/Graphics/SVG/1.1/DTD/svg11.dtd">
<svg xmlns="http://www.w3.org/2000/svg" version="1.1" width="720px" height="720px" style="shape-rendering:geometricPrecision; text-rendering:geometricPrecision; image-rendering:optimizeQuality; fill-rule:evenodd; clip-rule:evenodd" xmlns:xlink="http://www.w3.org/1999/xlink">
<g><path style="opacity:1" fill="#181818" d="M -0.5,-0.5 C 239.5,-0.5 479.5,-0.5 719.5,-0.5C 719.5,239.5 719.5,479.5 719.5,719.5C 479.5,719.5 239.5,719.5 -0.5,719.5C -0.5,479.5 -0.5,239.5 -0.5,-0.5 Z"/></g>
<g><path style="opacity:1" fill="#6b7358" d="M 335.5,179.5 C 336.266,184.363 336.932,189.363 337.5,194.5C 336.883,194.389 336.383,194.056 336,193.5C 336.545,179.278 334.545,178.945 330,192.5C 329.768,191.263 329.268,190.263 328.5,189.5C 329.861,185.429 332.195,182.095 335.5,179.5 Z"/></g>
<g><path style="opacity:1" fill="#a1ae8b" d="M 337.5,194.5 C 339.262,195.262 340.262,196.596 340.5,198.5C 339.185,197.524 337.852,196.524 336.5,195.5C 336.167,196 335.833,196.5 335.5,197C 336.79,200.415 338.456,203.582 340.5,206.5C 336.954,203.774 334.621,200.107 333.5,195.5C 332.604,194.494 331.938,194.494 331.5,195.5C 332.788,197.739 333.788,200.072 334.5,202.5C 331.171,198.839 329.171,194.506 328.5,189.5C 329.268,190.263 329.768,191.263 330,192.5C 334.545,178.945 336.545,179.278 336,193.5C 336.383,194.056 336.883,194.389 337.5,194.5 Z"/></g>
<g><path style="opacity:1" fill="#d2d8ce" d="M 335.5,179.5 C 336.566,178.308 337.399,178.641 338,180.5C 338.189,185.251 338.855,189.917 340,194.5C 344.487,199.476 348.487,204.809 352,210.5C 352.877,212.674 352.377,214.341 350.5,215.5C 350.206,212.246 348.873,209.579 346.5,207.5C 345.277,203.951 343.277,200.951 340.5,198.5C 340.262,196.596 339.262,195.262 337.5,194.5C 336.932,189.363 336.266,184.363 335.5,179.5 Z"/></g>
<g><path style="opacity:1" fill="#464c3c" d="M 340.5,206.5 C 342.122,210.376 341.789,214.043 339.5,217.5C 336.553,218.781 334.219,220.781 332.5,223.5C 331.833,223.5 331.167,223.5 330.5,223.5C 332.167,221.5 333.833,219.5 335.5,217.5C 338.286,217.044 339.619,215.377 339.5,212.5C 339.2,209.234 337.867,206.567 335.5,204.5C 334.662,204.158 334.328,203.492 334.5,202.5C 333.788,200.072 332.788,197.739 331.5,195.5C 331.938,194.494 332.604,194.494 333.5,195.5C 334.621,200.107 336.954,203.774 340.5,206.5 Z"/></g>
<g><path style="opacity:1" fill="#bbcf9a" d="M 340.5,198.5 C 341.759,202.025 343.759,205.025 346.5,207.5C 347.968,213.422 345.968,217.422 340.5,219.5C 339.662,219.158 339.328,218.492 339.5,217.5C 341.789,214.043 342.122,210.376 340.5,206.5C 338.456,203.582 336.79,200.415 335.5,197C 335.833,196.5 336.167,196 336.5,195.5C 337.852,196.524 339.185,197.524 340.5,198.5 Z"/></g>
<g><path style="opacity:1" fill="#5b694b" d="M 340.5,198.5 C 343.277,200.951 345.277,203.951 346.5,207.5C 343.759,205.025 341.759,202.025 340.5,198.5 Z"/></g>
<g><path style="opacity:1" fill="#c0c1bc" d="M 335.5,204.5 C 337.867,206.567 339.2,209.234 339.5,212.5C 339.619,215.377 338.286,217.044 335.5,217.5C 336.908,216.089 337.908,214.423 338.5,212.5C 337.49,209.817 336.49,207.151 335.5,204.5 Z"/></g>
<g><path style="opacity:1" fill="#9a9f96" d="M 335.5,217.5 C 333.833,219.5 332.167,221.5 330.5,223.5C 329.833,223.5 329.167,223.5 328.5,223.5C 330.239,220.757 332.573,218.757 335.5,217.5 Z"/></g>
<g><path style="opacity:1" fill="#d4d69e" d="M 347.5,218.5 C 344.729,221.392 341.729,224.058 338.5,226.5C 338.167,226.5 337.833,226.5 337.5,226.5C 340.095,222.874 343.428,220.208 347.5,218.5 Z"/></g>
<g><path style="opacity:1" fill="#111706" d="M 328.5,223.5 C 329.167,223.5 329.833,223.5 330.5,223.5C 329.833,224.833 328.833,225.833 327.5,226.5C 327.557,225.391 327.89,224.391 328.5,223.5 Z"/></g>
<g><path style="opacity:1" fill="#e1e6e1" d="M 337.5,226.5 C 337.833,226.5 338.167,226.5 338.5,226.5C 340.168,231.998 342.335,237.331 345,242.5C 345.765,244.066 345.598,245.399 344.5,246.5C 343.833,246.5 343.167,246.5 342.5,246.5C 340.405,241.971 338.572,237.304 337,232.5C 336.211,230.288 336.378,228.288 337.5,226.5 Z"/></g>
<g><path style="opacity:1" fill="#9aaa7f" d="M 339.5,217.5 C 339.328,218.492 339.662,219.158 340.5,219.5C 338.27,222.555 336.27,225.721 334.5,229C 336.209,234.63 338.209,240.13 340.5,245.5C 339.5,245.5 338.5,245.5 337.5,245.5C 336.069,239.948 334.403,234.448 332.5,229C 332.834,226.825 333.834,224.992 335.5,223.5C 334.767,222.913 333.767,222.913 332.5,223.5C 334.219,220.781 336.553,218.781 339.5,217.5 Z"/></g>
<g><path style="opacity:1" fill="#e8e8e5" d="M 328.5,223.5 C 327.89,224.391 327.557,225.391 327.5,226.5C 326.883,226.611 326.383,226.944 326,227.5C 325.501,233.516 325.668,239.516 326.5,245.5C 326.167,245.5 325.833,245.5 325.5,245.5C 324.376,239.248 324.21,232.915 325,226.5C 325.759,224.937 326.926,223.937 328.5,223.5 Z"/></g>
<g><path style="opacity:1" fill="#303527" d="M 327.5,226.5 C 327.209,232.923 327.542,239.256 328.5,245.5C 327.833,245.5 327.167,245.5 326.5,245.5C 325.668,239.516 325.501,233.516 326,227.5C 326.383,226.944 326.883,226.611 327.5,226.5 Z"/></g>
<g><path style="opacity:1" fill="#bdd29f" d="M 337.5,245.5 C 335.167,245.5 332.833,245.5 330.5,245.5C 330.649,240.691 329.983,236.025 328.5,231.5C 328.667,230.167 328.833,228.833 329,227.5C 330.376,226.295 331.542,224.962 332.5,223.5C 333.767,222.913 334.767,222.913 335.5,223.5C 333.834,224.992 332.834,226.825 332.5,229C 334.403,234.448 336.069,239.948 337.5,245.5 Z"/></g>
<g><path style="opacity:1" fill="#818d70" d="M 330.5,223.5 C 331.167,223.5 331.833,223.5 332.5,223.5C 331.542,224.962 330.376,226.295 329,227.5C 328.833,228.833 328.667,230.167 328.5,231.5C 329.983,236.025 330.649,240.691 330.5,245.5C 329.833,245.5 329.167,245.5 328.5,245.5C 327.542,239.256 327.209,232.923 327.5,226.5C 328.833,225.833 329.833,224.833 330.5,223.5 Z"/></g>
<g><path style="opacity:1" fill="#6a6f50" d="M 346.5,207.5 C 348.873,209.579 350.206,212.246 350.5,215.5C 350.5,217.5 349.5,218.5 347.5,218.5C 343.428,220.208 340.095,222.874 337.5,226.5C 336.378,228.288 336.211,230.288 337,232.5C 338.572,237.304 340.405,241.971 342.5,246.5C 341.508,246.672 340.842,246.338 340.5,245.5C 338.209,240.13 336.209,234.63 334.5,229C 336.27,225.721 338.27,222.555 340.5,219.5C 345.968,217.422 347.968,213.422 346.5,207.5 Z"/></g>
<g><path style="opacity:1" fill="#c6b766" d="M 325.5,245.5 C 325.833,245.5 326.167,245.5 326.5,245.5C 327.167,245.5 327.833,245.5 328.5,245.5C 329.167,245.5 329.833,245.5 330.5,245.5C 332.833,245.5 335.167,245.5 337.5,245.5C 338.5,245.5 339.5,245.5 340.5,245.5C 340.842,246.338 341.508,246.672 342.5,246.5C 343.167,246.5 343.833,246.5 344.5,246.5C 341.474,248.019 338.141,248.685 334.5,248.5C 332.167,248.333 329.833,248.167 327.5,248C 326.619,247.292 325.953,246.458 325.5,245.5 Z"/></g>
<g><path style="opacity:1" fill="#bebb93" d="M 358.5,252.5 C 346.816,253.554 335.149,253.554 323.5,252.5C 323.5,252.167 323.5,251.833 323.5,251.5C 335.203,250.14 346.869,250.474 358.5,252.5 Z"/></g>
<g><path style="opacity:1" fill="#ebe9d7" d="M 323.5,251.5 C 323.5,251.833 323.5,252.167 323.5,252.5C 322.005,252.989 320.671,253.655 319.5,254.5C 312.398,254.251 305.398,254.918 298.5,256.5C 299.59,255.143 300.924,254.143 302.5,253.5C 309.41,252.007 316.41,251.341 323.5,251.5 Z"/></g>
<g><path style="opacity:1" fill="#796c3e" d="M 323.5,252.5 C 335.149,253.554 346.816,253.554 358.5,252.5C 360.371,253.797 362.371,254.797 364.5,255.5C 349.515,254.691 334.515,254.358 319.5,254.5C 320.671,253.655 322.005,252.989 323.5,252.5 Z"/></g>
<g><path style="opacity:1" fill="#646863" d="M 302.5,253.5 C 300.924,254.143 299.59,255.143 298.5,256.5C 298.5,257.167 298.167,257.5 297.5,257.5C 297.167,256.5 296.5,255.833 295.5,255.5C 297.438,253.837 299.772,253.171 302.5,253.5 Z"/></g>
<g><path style="opacity:1" fill="#070605" d="M 319.5,254.5 C 334.515,254.358 349.515,254.691 364.5,255.5C 368.229,256.013 371.896,256.846 375.5,258C 376.774,258.977 376.774,259.811 375.5,260.5C 374.005,260.989 372.671,261.655 371.5,262.5C 367.803,263.008 364.136,263.674 360.5,264.5C 355.203,265.275 349.87,265.608 344.5,265.5C 332.141,265.728 319.807,265.395 307.5,264.5C 302.85,264.586 298.517,263.586 294.5,261.5C 293.046,258.6 294.046,257.267 297.5,257.5C 298.167,257.5 298.5,257.167 298.5,256.5C 305.398,254.918 312.398,254.251 319.5,254.5 Z"/></g>
<g><path style="opacity:1" fill="#8c979a" d="M 295.5,255.5 C 296.5,255.833 297.167,256.5 297.5,257.5C 294.046,257.267 293.046,258.6 294.5,261.5C 293.178,261.67 292.011,261.337 291,260.5C 290.503,263.146 290.336,265.813 290.5,268.5C 289.359,265.36 289.192,262.027 290,258.5C 291.488,256.84 293.321,255.84 295.5,255.5 Z"/></g>
<g><path style="opacity:1" fill="#cad9d9" d="M 358.5,252.5 C 364.941,253.063 371.275,254.23 377.5,256C 378.381,256.708 379.047,257.542 379.5,258.5C 379.666,263.179 379.499,267.845 379,272.5C 378.667,268.5 378.333,264.5 378,260.5C 377.023,261.774 376.189,261.774 375.5,260.5C 376.774,259.811 376.774,258.977 375.5,258C 371.896,256.846 368.229,256.013 364.5,255.5C 362.371,254.797 360.371,253.797 358.5,252.5 Z"/></g>
<g><path style="opacity:1" fill="#fdfdfd" d="M 294.5,261.5 C 298.517,263.586 302.85,264.586 307.5,264.5C 307.5,264.833 307.5,265.167 307.5,265.5C 306.833,265.5 306.167,265.5 305.5,265.5C 304.307,265.97 303.64,266.97 303.5,268.5C 304.644,299.15 304.811,329.817 304,360.5C 302.921,362.394 301.587,362.727 300,361.5C 298.103,363.016 295.936,363.683 293.5,363.5C 293.167,363.5 292.833,363.5 292.5,363.5C 291.45,331.906 290.783,300.239 290.5,268.5C 290.336,265.813 290.503,263.146 291,260.5C 292.011,261.337 293.178,261.67 294.5,261.5 Z"/></g>
<g><path style="opacity:1" fill="#fcfdf9" d="M 371.5,262.5 C 372.5,262.5 373.5,262.5 374.5,262.5C 374.18,265.898 374.513,269.232 375.5,272.5C 377.059,273.074 378.559,273.74 380,274.5C 386.236,273.812 392.403,273.812 398.5,274.5C 398.833,274.5 399.167,274.5 399.5,274.5C 399.389,275.117 399.056,275.617 398.5,276C 400.066,276.608 401.4,277.442 402.5,278.5C 398.777,277.703 395.11,276.703 391.5,275.5C 387.5,275.5 383.5,275.5 379.5,275.5C 378.85,275.196 378.183,274.863 377.5,274.5C 376.833,277.642 376.166,280.642 375.5,283.5C 375.768,281.901 375.434,280.568 374.5,279.5C 373.377,278.243 372.711,278.576 372.5,280.5C 371.517,284.298 371.183,288.298 371.5,292.5C 369.454,311.68 370.454,330.68 374.5,349.5C 374.5,352.5 374.5,355.5 374.5,358.5C 372.521,356.832 370.188,356.166 367.5,356.5C 363.974,350.1 361.807,343.1 361,335.5C 359.521,313.608 359.355,291.774 360.5,270C 357.892,268.063 357.892,266.23 360.5,264.5C 364.136,263.674 367.803,263.008 371.5,262.5 Z"/></g>
<g><path style="opacity:1" fill="#a9ab9b" d="M 307.5,265.5 C 307.5,265.167 307.5,264.833 307.5,264.5C 319.807,265.395 332.141,265.728 344.5,265.5C 345.5,266.167 346.5,266.833 347.5,267.5C 347.167,267.5 346.833,267.5 346.5,267.5C 345.5,267.5 344.5,267.5 343.5,267.5C 342.833,267.5 342.167,267.5 341.5,267.5C 340.167,267.5 338.833,267.5 337.5,267.5C 332.695,266.513 327.695,266.179 322.5,266.5C 321.167,266.5 319.833,266.5 318.5,266.5C 316.833,266.5 315.167,266.5 313.5,266.5C 311.5,266.167 309.5,265.833 307.5,265.5 Z"/></g>
<g><path style="opacity:1" fill="#fdfdeb" d="M 360.5,264.5 C 357.892,266.23 357.892,268.063 360.5,270C 359.355,291.774 359.521,313.608 361,335.5C 361.807,343.1 363.974,350.1 367.5,356.5C 370.188,356.166 372.521,356.832 374.5,358.5C 375.519,364.144 373.186,367.144 367.5,367.5C 367.351,366.448 367.517,365.448 368,364.5C 370.833,365.667 371.667,364.833 370.5,362C 371.973,361.29 372.64,360.124 372.5,358.5C 367.119,357.979 362.452,355.812 358.5,352C 359.059,351.275 359.392,350.442 359.5,349.5C 357.917,343.591 356.751,337.591 356,331.5C 354.443,316.864 353.277,302.197 352.5,287.5C 352.167,292.833 351.833,298.167 351.5,303.5C 351.153,292.468 350.153,281.802 348.5,271.5C 348.768,269.901 348.434,268.568 347.5,267.5C 346.5,266.833 345.5,266.167 344.5,265.5C 349.87,265.608 355.203,265.275 360.5,264.5 Z"/></g>
<g><path style="opacity:1" fill="#7e9096" d="M 379.5,258.5 C 380.485,262.634 380.818,266.968 380.5,271.5C 386.835,271.238 392.835,272.238 398.5,274.5C 392.403,273.812 386.236,273.812 380,274.5C 378.559,273.74 377.059,273.074 375.5,272.5C 374.513,269.232 374.18,265.898 374.5,262.5C 373.5,262.5 372.5,262.5 371.5,262.5C 372.671,261.655 374.005,260.989 375.5,260.5C 376.189,261.774 377.023,261.774 378,260.5C 378.333,264.5 378.667,268.5 379,272.5C 379.499,267.845 379.666,263.179 379.5,258.5 Z"/></g>
<g><path style="opacity:1" fill="#848c68" d="M 391.5,275.5 C 395.11,276.703 398.777,277.703 402.5,278.5C 403.795,279.488 405.128,280.488 406.5,281.5C 415.094,292.673 418.261,305.339 416,319.5C 415.34,324.31 414.173,328.977 412.5,333.5C 409.129,336.871 405.463,339.871 401.5,342.5C 399.302,342.591 398.969,341.925 400.5,340.5C 408.966,336.276 413.466,329.276 414,319.5C 414.813,313.41 414.646,308.076 413.5,303.5C 412.31,298.433 410.643,293.433 408.5,288.5C 408.611,287.883 408.944,287.383 409.5,287C 401.159,278.398 391.826,277.231 381.5,283.5C 380.526,281.257 380.192,278.924 380.5,276.5C 384.371,276.815 388.038,276.482 391.5,275.5 Z"/></g>
<g><path style="opacity:1" fill="#949771" d="M 379.5,275.5 C 379.849,279.742 379.183,283.742 377.5,287.5C 377.167,287.5 376.833,287.5 376.5,287.5C 376.567,286.041 376.234,284.708 375.5,283.5C 376.166,280.642 376.833,277.642 377.5,274.5C 378.183,274.863 378.85,275.196 379.5,275.5 Z"/></g>
<g><path style="opacity:1" fill="#57573e" d="M 379.5,275.5 C 383.5,275.5 387.5,275.5 391.5,275.5C 388.038,276.482 384.371,276.815 380.5,276.5C 380.192,278.924 380.526,281.257 381.5,283.5C 391.826,277.231 401.159,278.398 409.5,287C 408.944,287.383 408.611,287.883 408.5,288.5C 403.872,282.848 397.872,281.015 390.5,283C 387.929,283.901 385.596,285.234 383.5,287C 382.207,287.49 380.873,287.657 379.5,287.5C 379.167,287.5 378.833,287.5 378.5,287.5C 378.167,287.5 377.833,287.5 377.5,287.5C 379.183,283.742 379.849,279.742 379.5,275.5 Z"/></g>
<g><path style="opacity:1" fill="#352d17" d="M 374.5,279.5 C 373.85,281.435 373.517,283.435 373.5,285.5C 373.5,287.5 373.5,289.5 373.5,291.5C 372.518,288.038 372.185,284.371 372.5,280.5C 372.711,278.576 373.377,278.243 374.5,279.5 Z"/></g>
<g><path style="opacity:1" fill="#99a4a4" d="M 399.5,274.5 C 410.019,278.497 416.019,286.164 417.5,297.5C 415.907,292.98 413.74,288.647 411,284.5C 409.871,282.859 408.371,281.859 406.5,281.5C 405.128,280.488 403.795,279.488 402.5,278.5C 401.4,277.442 400.066,276.608 398.5,276C 399.056,275.617 399.389,275.117 399.5,274.5 Z"/></g>
<g><path style="opacity:1" fill="#191919" d="M 408.5,288.5 C 410.643,293.433 412.31,298.433 413.5,303.5C 413.934,313.642 412.101,323.309 408,332.5C 406.27,334.402 404.437,336.069 402.5,337.5C 397.571,339.531 392.571,339.864 387.5,338.5C 385.046,336.94 382.38,335.94 379.5,335.5C 379.5,319.5 379.5,303.5 379.5,287.5C 380.873,287.657 382.207,287.49 383.5,287C 385.596,285.234 387.929,283.901 390.5,283C 397.872,281.015 403.872,282.848 408.5,288.5 Z"/></g>
<g><path style="opacity:1" fill="#fefee0" d="M 348.5,271.5 C 350.153,281.802 351.153,292.468 351.5,303.5C 351.833,298.167 352.167,292.833 352.5,287.5C 353.277,302.197 354.443,316.864 356,331.5C 356.751,337.591 357.917,343.591 359.5,349.5C 359.392,350.442 359.059,351.275 358.5,352C 362.452,355.812 367.119,357.979 372.5,358.5C 372.64,360.124 371.973,361.29 370.5,362C 371.667,364.833 370.833,365.667 368,364.5C 367.517,365.448 367.351,366.448 367.5,367.5C 362.346,369.238 357.012,370.238 351.5,370.5C 350.5,370.5 349.5,370.5 348.5,370.5C 348.5,337.5 348.5,304.5 348.5,271.5 Z"/></g>
<g><path style="opacity:1" fill="#1a1610" d="M 305.5,265.5 C 306.167,265.5 306.833,265.5 307.5,265.5C 309.5,265.833 311.5,266.167 313.5,266.5C 313.5,294.833 313.5,323.167 313.5,351.5C 313.5,357.5 313.5,363.5 313.5,369.5C 311.435,369.483 309.435,369.15 307.5,368.5C 306.36,334.24 305.693,299.907 305.5,265.5 Z"/></g>
<g><path style="opacity:1" fill="#a1ad88" d="M 322.5,267.5 C 322.5,267.167 322.5,266.833 322.5,266.5C 327.695,266.179 332.695,266.513 337.5,267.5C 336.761,267.369 336.094,267.536 335.5,268C 336.5,268.333 337.5,268.667 338.5,269C 336.58,270.122 334.58,270.956 332.5,271.5C 333.049,297.219 332.215,322.885 330,348.5C 329.214,322.185 327.381,296.018 324.5,270C 325.943,267.922 325.276,267.089 322.5,267.5 Z"/></g>
<g><path style="opacity:1" fill="#dde3e0" d="M 406.5,281.5 C 408.371,281.859 409.871,282.859 411,284.5C 413.74,288.647 415.907,292.98 417.5,297.5C 419.723,309.808 418.39,321.808 413.5,333.5C 413.167,333.5 412.833,333.5 412.5,333.5C 414.173,328.977 415.34,324.31 416,319.5C 418.261,305.339 415.094,292.673 406.5,281.5 Z"/></g>
<g><path style="opacity:1" fill="#ececd0" d="M 373.5,285.5 C 373.838,303.357 374.838,321.024 376.5,338.5C 376.833,338.5 377.167,338.5 377.5,338.5C 379.167,338.5 380.833,338.5 382.5,338.5C 387.998,342.927 393.998,343.594 400.5,340.5C 398.969,341.925 399.302,342.591 401.5,342.5C 399.819,344.008 397.819,345.008 395.5,345.5C 393.143,345.663 390.81,345.497 388.5,345C 391.956,344.82 395.289,344.153 398.5,343C 398,342.833 397.5,342.667 397,342.5C 394.213,343.517 391.38,343.684 388.5,343C 384.732,340.944 380.732,339.778 376.5,339.5C 376.5,342.167 376.5,344.833 376.5,347.5C 376.5,348.167 376.5,348.833 376.5,349.5C 376.167,349.5 375.833,349.5 375.5,349.5C 375.167,348.167 374.833,348.167 374.5,349.5C 370.454,330.68 369.454,311.68 371.5,292.5C 371.333,305.171 371.5,317.838 372,330.5C 373.443,317.574 373.943,304.574 373.5,291.5C 373.5,289.5 373.5,287.5 373.5,285.5 Z"/></g>
<g><path style="opacity:1" fill="#d6d9b7" d="M 400.5,340.5 C 401.167,339.5 401.833,338.5 402.5,337.5C 404.437,336.069 406.27,334.402 408,332.5C 412.101,323.309 413.934,313.642 413.5,303.5C 414.646,308.076 414.813,313.41 414,319.5C 413.466,329.276 408.966,336.276 400.5,340.5 Z"/></g>
<g><path style="opacity:1" fill="#4d5356" d="M 374.5,279.5 C 375.434,280.568 375.768,281.901 375.5,283.5C 376.234,284.708 376.567,286.041 376.5,287.5C 376.5,304.5 376.5,321.5 376.5,338.5C 374.838,321.024 373.838,303.357 373.5,285.5C 373.517,283.435 373.85,281.435 374.5,279.5 Z"/></g>
<g><path style="opacity:1" fill="#6c8284" d="M 376.5,287.5 C 376.833,287.5 377.167,287.5 377.5,287.5C 377.833,287.5 378.167,287.5 378.5,287.5C 378.818,304.577 378.485,321.577 377.5,338.5C 377.167,338.5 376.833,338.5 376.5,338.5C 376.5,321.5 376.5,304.5 376.5,287.5 Z"/></g>
<g><path style="opacity:1" fill="#656f56" d="M 318.5,266.5 C 319.833,266.5 321.167,266.5 322.5,266.5C 322.5,266.833 322.5,267.167 322.5,267.5C 321.711,267.783 321.044,268.283 320.5,269C 322.34,296.279 323.507,323.779 324,351.5C 324.594,357.175 325.26,362.842 326,368.5C 329.394,369.456 332.894,369.789 336.5,369.5C 338.99,351.442 340.323,333.276 340.5,315C 339.74,300.509 339.407,286.009 339.5,271.5C 339.881,270.069 340.881,269.236 342.5,269C 341.944,268.617 341.611,268.117 341.5,267.5C 342.167,267.5 342.833,267.5 343.5,267.5C 344.512,269.1 344.012,270.434 342,271.5C 341.667,300.833 341.333,330.167 341,359.5C 340.667,362.167 340.333,364.833 340,367.5C 339.302,368.691 338.469,369.691 337.5,370.5C 333.167,370.5 328.833,370.5 324.5,370.5C 324.082,369.778 323.416,369.278 322.5,369C 322.833,368.667 323.167,368.333 323.5,368C 321.559,357.97 320.393,347.803 320,337.5C 319.458,314.141 318.624,290.808 317.5,267.5C 318.167,267.5 318.5,267.167 318.5,266.5 Z"/></g>
<g><path style="opacity:1" fill="#b8cdd7" d="M 378.5,287.5 C 378.833,287.5 379.167,287.5 379.5,287.5C 379.5,303.5 379.5,319.5 379.5,335.5C 382.38,335.94 385.046,336.94 387.5,338.5C 386.065,339.096 384.398,339.096 382.5,338.5C 380.833,338.5 379.167,338.5 377.5,338.5C 378.485,321.577 378.818,304.577 378.5,287.5 Z"/></g>
<g><path style="opacity:1" fill="#f7f6e7" d="M 305.5,265.5 C 305.693,299.907 306.36,334.24 307.5,368.5C 302.032,368.791 297.365,367.124 293.5,363.5C 295.936,363.683 298.103,363.016 300,361.5C 301.587,362.727 302.921,362.394 304,360.5C 304.811,329.817 304.644,299.15 303.5,268.5C 303.64,266.97 304.307,265.97 305.5,265.5 Z"/></g>
<g><path style="opacity:1" fill="#a79e56" d="M 372.5,280.5 C 372.185,284.371 372.518,288.038 373.5,291.5C 373.943,304.574 373.443,317.574 372,330.5C 371.5,317.838 371.333,305.171 371.5,292.5C 371.183,288.298 371.517,284.298 372.5,280.5 Z"/></g>
<g><path style="opacity:1" fill="#92a09e" d="M 402.5,337.5 C 401.833,338.5 401.167,339.5 400.5,340.5C 393.998,343.594 387.998,342.927 382.5,338.5C 384.398,339.096 386.065,339.096 387.5,338.5C 392.571,339.864 397.571,339.531 402.5,337.5 Z"/></g>
<g><path style="opacity:1" fill="#737c59" d="M 395.5,345.5 C 390.399,347.049 385.066,348.049 379.5,348.5C 378.583,347.873 377.583,347.539 376.5,347.5C 376.5,344.833 376.5,342.167 376.5,339.5C 380.732,339.778 384.732,340.944 388.5,343C 391.38,343.684 394.213,343.517 397,342.5C 397.5,342.667 398,342.833 398.5,343C 395.289,344.153 391.956,344.82 388.5,345C 390.81,345.497 393.143,345.663 395.5,345.5 Z"/></g>
<g><path style="opacity:1" fill="#3d4234" d="M 313.5,266.5 C 315.167,266.5 316.833,266.5 318.5,266.5C 318.5,267.167 318.167,267.5 317.5,267.5C 316.883,267.611 316.383,267.944 316,268.5C 314.656,302.29 315.989,335.957 320,369.5C 321.356,370.38 322.856,370.714 324.5,370.5C 328.833,370.5 333.167,370.5 337.5,370.5C 339.262,370.643 340.929,370.309 342.5,369.5C 343.314,367.234 343.814,364.9 344,362.5C 344.011,330.786 344.845,299.12 346.5,267.5C 346.833,267.5 347.167,267.5 347.5,267.5C 348.434,268.568 348.768,269.901 348.5,271.5C 348.5,304.5 348.5,337.5 348.5,370.5C 349.5,370.5 350.5,370.5 351.5,370.5C 339.307,371.783 326.974,371.783 314.5,370.5C 314.823,363.978 314.49,357.645 313.5,351.5C 313.5,323.167 313.5,294.833 313.5,266.5 Z"/></g>
<g><path style="opacity:1" fill="#8c9672" d="M 322.5,267.5 C 325.276,267.089 325.943,267.922 324.5,270C 327.381,296.018 329.214,322.185 330,348.5C 332.215,322.885 333.049,297.219 332.5,271.5C 334.58,270.956 336.58,270.122 338.5,269C 337.5,268.667 336.5,268.333 335.5,268C 336.094,267.536 336.761,267.369 337.5,267.5C 338.833,267.5 340.167,267.5 341.5,267.5C 341.611,268.117 341.944,268.617 342.5,269C 340.881,269.236 339.881,270.069 339.5,271.5C 337.711,276.407 336.878,281.74 337,287.5C 336.323,312.85 335.323,338.183 334,363.5C 333.333,366.167 332.667,366.167 332,363.5C 331.781,364.938 331.281,366.271 330.5,367.5C 328.613,365.974 327.613,363.974 327.5,361.5C 324.668,330.173 323.001,298.84 322.5,267.5 Z"/></g>
<g><path style="opacity:1" fill="#4b5240" d="M 343.5,267.5 C 344.5,267.5 345.5,267.5 346.5,267.5C 344.845,299.12 344.011,330.786 344,362.5C 343.814,364.9 343.314,367.234 342.5,369.5C 340.929,370.309 339.262,370.643 337.5,370.5C 338.469,369.691 339.302,368.691 340,367.5C 340.333,364.833 340.667,362.167 341,359.5C 341.333,330.167 341.667,300.833 342,271.5C 344.012,270.434 344.512,269.1 343.5,267.5 Z"/></g>
<g><path style="opacity:1" fill="#768764" d="M 322.5,267.5 C 323.001,298.84 324.668,330.173 327.5,361.5C 327.613,363.974 328.613,365.974 330.5,367.5C 331.281,366.271 331.781,364.938 332,363.5C 332.667,366.167 333.333,366.167 334,363.5C 335.323,338.183 336.323,312.85 337,287.5C 336.878,281.74 337.711,276.407 339.5,271.5C 339.407,286.009 339.74,300.509 340.5,315C 340.323,333.276 338.99,351.442 336.5,369.5C 332.894,369.789 329.394,369.456 326,368.5C 325.26,362.842 324.594,357.175 324,351.5C 323.507,323.779 322.34,296.279 320.5,269C 321.044,268.283 321.711,267.783 322.5,267.5 Z"/></g>
<g><path style="opacity:1" fill="#3d3a30" d="M 412.5,333.5 C 412.833,333.5 413.167,333.5 413.5,333.5C 405.439,346.198 394.106,351.864 379.5,350.5C 378.391,350.443 377.391,350.11 376.5,349.5C 376.5,348.833 376.5,348.167 376.5,347.5C 377.583,347.539 378.583,347.873 379.5,348.5C 385.066,348.049 390.399,347.049 395.5,345.5C 397.819,345.008 399.819,344.008 401.5,342.5C 405.463,339.871 409.129,336.871 412.5,333.5 Z"/></g>
<g><path style="opacity:1" fill="#4d5643" d="M 317.5,267.5 C 318.624,290.808 319.458,314.141 320,337.5C 320.393,347.803 321.559,357.97 323.5,368C 323.167,368.333 322.833,368.667 322.5,369C 323.416,369.278 324.082,369.778 324.5,370.5C 322.856,370.714 321.356,370.38 320,369.5C 315.989,335.957 314.656,302.29 316,268.5C 316.383,267.944 316.883,267.611 317.5,267.5 Z"/></g>
<g><path style="opacity:1" fill="#a99e80" d="M 295.5,367.5 C 299.096,368.8 302.763,369.8 306.5,370.5C 306.5,382.833 306.5,395.167 306.5,407.5C 306.664,410.187 306.497,412.854 306,415.5C 305.667,408.833 305.333,402.167 305,395.5C 304.863,406.923 303.863,418.257 302,429.5C 301.333,428.167 300.667,428.167 300,429.5C 299.802,427.618 299.302,425.952 298.5,424.5C 297.305,424.134 296.639,423.301 296.5,422C 296.986,411.613 297.319,401.446 297.5,391.5C 297.893,388.085 296.893,385.251 294.5,383C 295.93,381.114 297.597,379.447 299.5,378C 297.349,376.595 295.682,374.761 294.5,372.5C 294.595,370.785 294.928,369.119 295.5,367.5 Z"/></g>
<g><path style="opacity:1" fill="#9e916d" d="M 375.5,375.5 C 374.458,381.97 373.124,387.636 371.5,392.5C 371.5,392.833 371.5,393.167 371.5,393.5C 370.671,400.655 370.171,407.989 370,415.5C 369.667,410.167 369.333,404.833 369,399.5C 368.667,404.167 368.333,408.833 368,413.5C 367.286,405.997 364.286,399.664 359,394.5C 358.551,398.924 359.385,403.09 361.5,407C 360.718,409.74 360.218,412.574 360,415.5C 358.667,413.5 357.333,411.5 356,409.5C 355.667,409.833 355.333,410.167 355,410.5C 354.29,409.027 353.124,408.36 351.5,408.5C 351.666,402.824 351.499,397.157 351,391.5C 350.667,394.833 350.333,398.167 350,401.5C 349.722,400.584 349.222,399.918 348.5,399.5C 348.334,390.827 348.5,382.16 349,373.5C 357.622,372.053 366.122,370.053 374.5,367.5C 374.279,370.279 374.612,372.946 375.5,375.5 Z"/></g>
<g><path style="opacity:1" fill="#a59e83" d="M 403.5,388.5 C 400.171,386.34 396.504,385.006 392.5,384.5C 388.648,384.896 384.981,385.896 381.5,387.5C 380.167,387.5 378.833,387.5 377.5,387.5C 376.833,387.5 376.5,387.167 376.5,386.5C 381.694,385.654 386.86,384.654 392,383.5C 396.795,383.152 400.629,384.818 403.5,388.5 Z"/></g>
<g><path style="opacity:1" fill="#272924" d="M 319.5,373.5 C 318.853,374.274 318.52,375.274 318.5,376.5C 319.205,405.503 320.205,434.503 321.5,463.5C 322.317,466.467 323.65,469.134 325.5,471.5C 324.833,471.5 324.5,471.833 324.5,472.5C 321.017,471.99 317.684,471.323 314.5,470.5C 314.946,438.004 314.946,405.337 314.5,372.5C 316.415,372.216 318.081,372.549 319.5,373.5 Z"/></g>
<g><path style="opacity:1" fill="#928c77" d="M 406.5,385.5 C 409.014,388.53 411.014,391.863 412.5,395.5C 409.97,392.312 407.304,389.145 404.5,386C 405.094,385.536 405.761,385.369 406.5,385.5 Z"/></g>
<g><path style="opacity:1" fill="#4d5353" d="M 375.5,349.5 C 375.833,349.5 376.167,349.5 376.5,349.5C 377.391,350.11 378.391,350.443 379.5,350.5C 379.5,358.167 379.5,365.833 379.5,373.5C 407.19,375.508 419.524,390.175 416.5,417.5C 416.662,411.445 416.162,405.445 415,399.5C 414.392,397.934 413.558,396.6 412.5,395.5C 411.014,391.863 409.014,388.53 406.5,385.5C 406.5,384.833 406.167,384.5 405.5,384.5C 397.484,376.826 387.817,373.493 376.5,374.5C 376.008,370.543 376.675,366.877 378.5,363.5C 377.645,362.707 376.811,363.04 376,364.5C 375.501,359.511 375.334,354.511 375.5,349.5 Z"/></g>
<g><path style="opacity:1" fill="#181818" d="M 403.5,388.5 C 405.512,391.205 407.512,393.872 409.5,396.5C 412.559,408.985 412.059,421.319 408,433.5C 407.051,435.093 405.885,436.426 404.5,437.5C 402.447,437.402 400.78,438.069 399.5,439.5C 392.251,439.711 385.918,437.378 380.5,432.5C 380.167,425.167 379.833,417.833 379.5,410.5C 379.534,402.599 380.2,394.933 381.5,387.5C 384.981,385.896 388.648,384.896 392.5,384.5C 396.504,385.006 400.171,386.34 403.5,388.5 Z"/></g>
<g><path style="opacity:1" fill="#3c3210" d="M 371.5,392.5 C 372.239,392.369 372.906,392.536 373.5,393C 372.513,403.752 372.18,414.585 372.5,425.5C 372.167,425.5 371.833,425.5 371.5,425.5C 371.5,414.833 371.5,404.167 371.5,393.5C 371.5,393.167 371.5,392.833 371.5,392.5 Z"/></g>
<g><path style="opacity:1" fill="#282b26" d="M 346.5,377.5 C 346.833,408.507 346.5,439.507 345.5,470.5C 343.591,471.348 341.591,471.682 339.5,471.5C 340.119,467.071 341.119,462.738 342.5,458.5C 342.156,442.317 341.99,425.984 342,409.5C 343.455,400.359 344.622,391.193 345.5,382C 343.924,380.005 344.257,378.505 346.5,377.5 Z"/></g>
<g><path style="opacity:1" fill="#918563" d="M 371.5,393.5 C 371.5,404.167 371.5,414.833 371.5,425.5C 371.5,428.5 371.5,431.5 371.5,434.5C 367.407,440.026 364.24,439.359 362,432.5C 361.586,432.957 361.086,433.291 360.5,433.5C 360.121,436.056 359.787,438.556 359.5,441C 359.493,442.812 360.16,444.312 361.5,445.5C 361.245,447.343 361.078,449.343 361,451.5C 359.667,450.833 358.333,450.167 357,449.5C 356.691,450.766 356.191,451.933 355.5,453C 356.672,453.419 357.672,454.085 358.5,455C 356.009,455.409 354.009,456.576 352.5,458.5C 351.675,462.122 351.175,465.789 351,469.5C 349.852,456.815 349.019,444.148 348.5,431.5C 348.5,420.833 348.5,410.167 348.5,399.5C 349.222,399.918 349.722,400.584 350,401.5C 350.333,398.167 350.667,394.833 351,391.5C 351.499,397.157 351.666,402.824 351.5,408.5C 353.124,408.36 354.29,409.027 355,410.5C 355.333,410.167 355.667,409.833 356,409.5C 357.333,411.5 358.667,413.5 360,415.5C 360.218,412.574 360.718,409.74 361.5,407C 359.385,403.09 358.551,398.924 359,394.5C 364.286,399.664 367.286,405.997 368,413.5C 368.333,408.833 368.667,404.167 369,399.5C 369.333,404.833 369.667,410.167 370,415.5C 370.171,407.989 370.671,400.655 371.5,393.5 Z"/></g>
<g><path style="opacity:1" fill="#76705f" d="M 375.5,375.5 C 376.338,375.842 376.672,376.508 376.5,377.5C 376.806,380.385 376.473,383.052 375.5,385.5C 374.8,398.131 374.133,412.131 373.5,427.5C 372.702,427.043 372.369,426.376 372.5,425.5C 372.18,414.585 372.513,403.752 373.5,393C 372.906,392.536 372.239,392.369 371.5,392.5C 373.124,387.636 374.458,381.97 375.5,375.5 Z"/></g>
<g><path style="opacity:1" fill="#8d8c7c" d="M 412.5,395.5 C 413.558,396.6 414.392,397.934 415,399.5C 416.162,405.445 416.662,411.445 416.5,417.5C 416.225,424.269 414.559,430.603 411.5,436.5C 410.957,436.44 410.624,436.107 410.5,435.5C 416.291,422.423 416.958,409.09 412.5,395.5 Z"/></g>
<g><path style="opacity:1" fill="#454d52" d="M 377.5,387.5 C 378.833,387.5 380.167,387.5 381.5,387.5C 380.2,394.933 379.534,402.599 379.5,410.5C 379.833,417.833 380.167,425.167 380.5,432.5C 385.918,437.378 392.251,439.711 399.5,439.5C 394.529,440.841 389.529,440.508 384.5,438.5C 383.517,435.013 381.183,433.68 377.5,434.5C 377.539,418.625 377.539,402.958 377.5,387.5 Z"/></g>
<g><path style="opacity:1" fill="#626053" d="M 409.5,396.5 C 415.077,409.91 414.577,423.244 408,436.5C 406.622,438.213 404.955,439.547 403,440.5C 402.761,439.212 403.261,438.212 404.5,437.5C 405.885,436.426 407.051,435.093 408,433.5C 412.059,421.319 412.559,408.985 409.5,396.5 Z"/></g>
<g><path style="opacity:1" fill="#928970" d="M 306.5,407.5 C 307.332,427.329 307.832,447.329 308,467.5C 309.039,468.244 309.539,469.244 309.5,470.5C 305.851,469.733 302.518,468.4 299.5,466.5C 299.938,466.565 300.272,466.399 300.5,466C 299.101,464.938 298.101,463.605 297.5,462C 297.899,449.066 298.232,436.566 298.5,424.5C 299.302,425.952 299.802,427.618 300,429.5C 300.667,428.167 301.333,428.167 302,429.5C 303.863,418.257 304.863,406.923 305,395.5C 305.333,402.167 305.667,408.833 306,415.5C 306.497,412.854 306.664,410.187 306.5,407.5 Z"/></g>
<g><path style="opacity:1" fill="#2a2e2d" d="M 375.5,385.5 C 375.5,386.167 375.833,386.5 376.5,386.5C 376.5,387.167 376.833,387.5 377.5,387.5C 377.539,402.958 377.539,418.625 377.5,434.5C 381.183,433.68 383.517,435.013 384.5,438.5C 382.473,438.662 380.473,438.495 378.5,438C 377.874,437.25 377.374,436.416 377,435.5C 375.89,437.037 374.39,437.703 372.5,437.5C 372.737,436.209 372.404,435.209 371.5,434.5C 371.5,431.5 371.5,428.5 371.5,425.5C 371.833,425.5 372.167,425.5 372.5,425.5C 372.369,426.376 372.702,427.043 373.5,427.5C 374.133,412.131 374.8,398.131 375.5,385.5 Z"/></g>
<g><path style="opacity:1" fill="#867e64" d="M 348.5,431.5 C 349.019,444.148 349.852,456.815 351,469.5C 351.175,465.789 351.675,462.122 352.5,458.5C 354.009,456.576 356.009,455.409 358.5,455C 357.672,454.085 356.672,453.419 355.5,453C 356.191,451.933 356.691,450.766 357,449.5C 358.333,450.167 359.667,450.833 361,451.5C 361.078,449.343 361.245,447.343 361.5,445.5C 360.16,444.312 359.493,442.812 359.5,441C 359.787,438.556 360.121,436.056 360.5,433.5C 361.086,433.291 361.586,432.957 362,432.5C 364.24,439.359 367.407,440.026 371.5,434.5C 372.404,435.209 372.737,436.209 372.5,437.5C 374.8,439.928 375.967,442.928 376,446.5C 377.302,447.085 378.469,447.751 379.5,448.5C 377.726,449.881 376.226,449.548 375,447.5C 374.667,452.833 374.333,458.167 374,463.5C 373.626,464.416 373.126,465.25 372.5,466C 363.551,470.071 354.218,472.904 344.5,474.5C 343.309,477.568 341.642,480.235 339.5,482.5C 338.939,479.96 339.605,477.46 341.5,475C 336.845,474.501 332.179,474.334 327.5,474.5C 327.818,479.032 327.485,483.366 326.5,487.5C 326.5,482.833 326.5,478.167 326.5,473.5C 320.54,473.452 314.873,472.452 309.5,470.5C 311.167,470.5 312.833,470.5 314.5,470.5C 317.684,471.323 321.017,471.99 324.5,472.5C 332.42,472.815 340.253,472.482 348,471.5C 348.5,458.171 348.667,444.837 348.5,431.5 Z"/></g>
<g><path style="opacity:1" fill="#9c9688" d="M 295.5,367.5 C 294.928,369.119 294.595,370.785 294.5,372.5C 295.682,374.761 297.349,376.595 299.5,378C 297.597,379.447 295.93,381.114 294.5,383C 296.893,385.251 297.893,388.085 297.5,391.5C 297.319,401.446 296.986,411.613 296.5,422C 296.639,423.301 297.305,424.134 298.5,424.5C 298.232,436.566 297.899,449.066 297.5,462C 298.101,463.605 299.101,464.938 300.5,466C 300.272,466.399 299.938,466.565 299.5,466.5C 296.888,465.723 295.055,464.056 294,461.5C 293.382,442.501 292.882,423.501 292.5,404.5C 292.333,391.496 292.5,378.496 293,365.5C 293.995,366.066 294.828,366.733 295.5,367.5 Z"/></g>
<g><path style="opacity:1" fill="#39392c" d="M 376.5,377.5 C 380.819,378.035 385.152,378.535 389.5,379C 395.006,380.599 400.339,382.432 405.5,384.5C 406.167,384.5 406.5,384.833 406.5,385.5C 405.761,385.369 405.094,385.536 404.5,386C 407.304,389.145 409.97,392.312 412.5,395.5C 416.958,409.09 416.291,422.423 410.5,435.5C 410.624,436.107 410.957,436.44 411.5,436.5C 408.61,442.282 403.943,445.615 397.5,446.5C 391.534,447.447 385.534,448.114 379.5,448.5C 378.469,447.751 377.302,447.085 376,446.5C 375.967,442.928 374.8,439.928 372.5,437.5C 374.39,437.703 375.89,437.037 377,435.5C 377.374,436.416 377.874,437.25 378.5,438C 380.473,438.495 382.473,438.662 384.5,438.5C 389.529,440.508 394.529,440.841 399.5,439.5C 400.78,438.069 402.447,437.402 404.5,437.5C 403.261,438.212 402.761,439.212 403,440.5C 404.955,439.547 406.622,438.213 408,436.5C 414.577,423.244 415.077,409.91 409.5,396.5C 407.512,393.872 405.512,391.205 403.5,388.5C 400.629,384.818 396.795,383.152 392,383.5C 386.86,384.654 381.694,385.654 376.5,386.5C 375.833,386.5 375.5,386.167 375.5,385.5C 376.473,383.052 376.806,380.385 376.5,377.5 Z"/></g>
<g><path style="opacity:1" fill="#beb498" d="M 397.5,446.5 C 391.689,449.281 385.689,449.947 379.5,448.5C 385.534,448.114 391.534,447.447 397.5,446.5 Z"/></g>
<g><path style="opacity:1" fill="#383b31" d="M 319.5,373.5 C 328.173,373.334 336.84,373.5 345.5,374C 346.337,375.011 346.67,376.178 346.5,377.5C 344.257,378.505 343.924,380.005 345.5,382C 344.622,391.193 343.455,400.359 342,409.5C 341.99,425.984 342.156,442.317 342.5,458.5C 341.119,462.738 340.119,467.071 339.5,471.5C 334.833,471.5 330.167,471.5 325.5,471.5C 323.65,469.134 322.317,466.467 321.5,463.5C 320.205,434.503 319.205,405.503 318.5,376.5C 318.52,375.274 318.853,374.274 319.5,373.5 Z"/></g>
<g><path style="opacity:1" fill="#1f1d19" d="M 375.5,349.5 C 375.334,354.511 375.501,359.511 376,364.5C 376.811,363.04 377.645,362.707 378.5,363.5C 376.675,366.877 376.008,370.543 376.5,374.5C 387.817,373.493 397.484,376.826 405.5,384.5C 400.339,382.432 395.006,380.599 389.5,379C 385.152,378.535 380.819,378.035 376.5,377.5C 376.672,376.508 376.338,375.842 375.5,375.5C 374.612,372.946 374.279,370.279 374.5,367.5C 366.122,370.053 357.622,372.053 349,373.5C 348.5,382.16 348.334,390.827 348.5,399.5C 348.5,410.167 348.5,420.833 348.5,431.5C 348.667,444.837 348.5,458.171 348,471.5C 340.253,472.482 332.42,472.815 324.5,472.5C 324.5,471.833 324.833,471.5 325.5,471.5C 330.167,471.5 334.833,471.5 339.5,471.5C 341.591,471.682 343.591,471.348 345.5,470.5C 346.5,439.507 346.833,408.507 346.5,377.5C 346.67,376.178 346.337,375.011 345.5,374C 336.84,373.5 328.173,373.334 319.5,373.5C 318.081,372.549 316.415,372.216 314.5,372.5C 314.946,405.337 314.946,438.004 314.5,470.5C 312.833,470.5 311.167,470.5 309.5,470.5C 309.539,469.244 309.039,468.244 308,467.5C 307.832,447.329 307.332,427.329 306.5,407.5C 306.5,395.167 306.5,382.833 306.5,370.5C 302.763,369.8 299.096,368.8 295.5,367.5C 294.828,366.733 293.995,366.066 293,365.5C 292.5,378.496 292.333,391.496 292.5,404.5C 291.167,390.833 291.167,377.167 292.5,363.5C 292.833,363.5 293.167,363.5 293.5,363.5C 297.365,367.124 302.032,368.791 307.5,368.5C 309.435,369.15 311.435,369.483 313.5,369.5C 313.5,363.5 313.5,357.5 313.5,351.5C 314.49,357.645 314.823,363.978 314.5,370.5C 326.974,371.783 339.307,371.783 351.5,370.5C 357.012,370.238 362.346,369.238 367.5,367.5C 373.186,367.144 375.519,364.144 374.5,358.5C 374.5,355.5 374.5,352.5 374.5,349.5C 374.833,348.167 375.167,348.167 375.5,349.5 Z"/></g>
<g><path style="opacity:1" fill="#484d3e" d="M 323.5,375.5 C 332.272,373.989 336.939,373.989 337.5,375.5C 337.511,377.547 337.844,379.547 338.5,381.5C 337.245,400.135 336.412,418.801 336,437.5C 335.783,434.512 334.783,431.845 333,429.5C 332.667,430.5 332.333,431.5 332,432.5C 331.667,429.167 331.333,425.833 331,422.5C 330.08,425.101 329.413,427.768 329,430.5C 328.667,425.5 328.333,420.5 328,415.5C 327.667,417.5 327.333,419.5 327,421.5C 326.71,409.102 325.876,396.769 324.5,384.5C 324.833,383.833 325.167,383.167 325.5,382.5C 324.292,379.934 323.625,377.601 323.5,375.5 Z"/></g>
<g><path style="opacity:1" fill="#777466" d="M 339.5,503.5 C 339.33,502.178 339.663,501.011 340.5,500C 336.307,496.635 332.307,493.135 328.5,489.5C 328.435,489.062 328.601,488.728 329,488.5C 333.775,491.808 338.275,495.474 342.5,499.5C 341.965,501.261 340.965,502.594 339.5,503.5 Z"/></g>
<g><path style="opacity:1" fill="#867b65" d="M 352.5,500.5 C 350.575,504.751 347.908,508.417 344.5,511.5C 347.295,507.522 349.462,503.189 351,498.5C 351.717,499.044 352.217,499.711 352.5,500.5 Z"/></g>
<g><path style="opacity:1" fill="#2c2c25" d="M 339.5,482.5 C 338.499,483.789 338.666,485.122 340,486.5C 344,489.833 348,493.167 352,496.5C 353.298,497.946 353.465,499.279 352.5,500.5C 352.217,499.711 351.717,499.044 351,498.5C 349.462,503.189 347.295,507.522 344.5,511.5C 341.854,513.479 339.521,515.812 337.5,518.5C 338.738,521.166 338.738,523.832 337.5,526.5C 335.719,523.909 333.719,521.575 331.5,519.5C 330.427,518.749 330.26,517.749 331,516.5C 333.857,512.102 336.691,507.768 339.5,503.5C 340.965,502.594 341.965,501.261 342.5,499.5C 338.275,495.474 333.775,491.808 329,488.5C 328.601,488.728 328.435,489.062 328.5,489.5C 327.5,489.167 326.833,488.5 326.5,487.5C 327.485,483.366 327.818,479.032 327.5,474.5C 332.179,474.334 336.845,474.501 341.5,475C 339.605,477.46 338.939,479.96 339.5,482.5 Z"/></g>
<g><path style="opacity:1" fill="#6c695e" d="M 344.5,511.5 C 343.627,513.886 342.127,515.886 340,517.5C 340.287,532.728 337.454,533.395 331.5,519.5C 333.719,521.575 335.719,523.909 337.5,526.5C 338.738,523.832 338.738,521.166 337.5,518.5C 339.521,515.812 341.854,513.479 344.5,511.5 Z"/></g>
</svg>
